<svg xmlns="http://www.w3.org/2000/svg" xmlns:xlink="http://www.w3.org/1999/xlink" width="43" height="36" viewBox="0 0 43 36"><defs><path id="ptcma" d="M253.91 2283.18h26.91c2.23 0 4.04 1.81 4.04 4.04v17.49c0 .47-.08.92-.23 1.34h.23v2.7h-4.04v-21.53h-26.9v21.53h-4.04v-2.7h.23a4.03 4.03 0 0 1-.23-1.34v-17.5c0-2.22 1.8-4.03 4.03-4.03zm-4.03 28.26h34.98a2.7 2.7 0 0 1 2.69 2.69c0 1.48-2.55 2.69-4.04 2.69h-32.29c-1.48 0-4.03-1.2-4.03-2.7a2.7 2.7 0 0 1 2.69-2.68zm12.1 3.36c0 .37.6.67 1.35.67h8.07c.75 0 1.35-.3 1.35-.67 0-.37-.6-.67-1.35-.67h-8.07c-.74 0-1.34.3-1.34.67zm-3.65-15.83l1.9-1.9a1.34 1.34 0 0 1 1.9 0l2.48 2.49 8-8.04a1.33 1.33 0 0 1 1.9 0l1.89 1.9c.52.53.52 1.38 0 1.9l-10.42 10.47c-.45.45-1.14.51-1.65.2-.44.1-.92-.02-1.26-.36l-4.74-4.76a1.35 1.35 0 0 1 0-1.9z"/></defs><g><g transform="translate(-246 -2282)"><use xlink:href="#ptcma"/></g></g></svg>