<svg xmlns="http://www.w3.org/2000/svg" xmlns:xlink="http://www.w3.org/1999/xlink" width="35" height="34" viewBox="0 0 35 34"><defs><path id="xmtna" d="M545.67 1554c8.65 0 15.7 7.05 15.7 15.7 0 8.66-7.05 15.7-15.7 15.7-8.66 0-15.7-7.04-15.7-15.7 0-8.65 7.04-15.7 15.7-15.7zm0 30.15c7.96 0 14.44-6.48 14.44-14.45 0-7.96-6.48-14.44-14.44-14.44a14.46 14.46 0 0 0-14.45 14.44c0 7.97 6.48 14.45 14.45 14.45z"/><path id="xmtnb" d="M544.2 1576.03c-.27 0-.53-.1-.74-.3l-4.31-4.31a1.03 1.03 0 1 1 1.46-1.46l3.59 3.58 8.58-8.59a1.03 1.03 0 0 1 1.47 1.47l-9.32 9.31c-.2.2-.47.3-.73.3z"/></defs><g><g transform="translate(-528 -1553)"><use fill="#ccc" xlink:href="#xmtna"/></g><g transform="translate(-528 -1553)"><use fill="#ccc" xlink:href="#xmtnb"/></g></g></svg>