<svg xmlns="http://www.w3.org/2000/svg" xmlns:xlink="http://www.w3.org/1999/xlink" width="31" height="41" viewBox="0 0 31 41"><defs><path id="otsma" d="M267.97 2368.77c5.15 0 9.33 3.66 9.33 8.17v9.33h1.17a3.5 3.5 0 0 1 3.5 3.5v12.83a3.5 3.5 0 0 1-3.5 3.5h-21a3.5 3.5 0 0 1-3.5-3.5v-12.83a3.5 3.5 0 0 1 3.5-3.5h1.17v-9.33c0-4.51 4.17-8.17 9.33-8.17zm-4.67 8.17v8.17c0 .4.1.8.27 1.16h8.8c.17-.36.26-.76.26-1.16v-8.17c0-1.93-2.08-3.5-4.66-3.5s-4.67 1.57-4.67 3.5zm2.33 23.33a2.33 2.33 0 1 0 4.67 0v-1.79a4.67 4.67 0 1 0-4.67 0z"/></defs><g><g transform="translate(-252 -2367)"><use xlink:href="#otsma"/></g></g></svg>